<svg xmlns="http://www.w3.org/2000/svg" width="400" height="116" viewBox="0 0 400 116">
  <style>text { font-family: -apple-system, BlinkMacSystemFont, "Segoe UI", Helvetica, Arial, sans-serif; }</style>
  <defs><clipPath id="bar-clip"><rect x="0" y="0" width="400" height="8" rx="4" /></clipPath></defs>
<g clip-path="url(#bar-clip)">
  <rect x="0" y="0" width="185.2" height="8" fill="#276DC3" rx="0" />
  <rect x="185.2" y="0" width="66" height="8" fill="#F7DF1E" rx="0" />
  <rect x="251.2" y="0" width="39.2" height="8" fill="#CC342D" rx="0" />
  <rect x="290.4" y="0" width="30.4" height="8" fill="#777BB4" rx="0" />
  <rect x="320.79999999999995" y="0" width="23.2" height="8" fill="#3776AB" rx="0" />
  <rect x="343.99999999999994" y="0" width="22.8" height="8" fill="#00599C" rx="0" />
  <rect x="366.79999999999995" y="0" width="18" height="8" fill="#4EAA25" rx="0" />
  <rect x="384.79999999999995" y="0" width="15.2" height="8" fill="#384d54" rx="0" />
</g>
  <circle cx="4" cy="32" r="4" fill="#276DC3" />
  <text x="14" y="35" font-size="11" fill="#333">R <tspan fill="#888">46.3%</tspan></text>
  <circle cx="204" cy="32" r="4" fill="#F7DF1E" />
  <text x="214" y="35" font-size="11" fill="#333">JavaScript <tspan fill="#888">16.5%</tspan></text>
  <circle cx="4" cy="52" r="4" fill="#CC342D" />
  <text x="14" y="55" font-size="11" fill="#333">Ruby <tspan fill="#888">9.8%</tspan></text>
  <circle cx="204" cy="52" r="4" fill="#777BB4" />
  <text x="214" y="55" font-size="11" fill="#333">PHP <tspan fill="#888">7.6%</tspan></text>
  <circle cx="4" cy="72" r="4" fill="#3776AB" />
  <text x="14" y="75" font-size="11" fill="#333">Python <tspan fill="#888">5.8%</tspan></text>
  <circle cx="204" cy="72" r="4" fill="#00599C" />
  <text x="214" y="75" font-size="11" fill="#333">C++ <tspan fill="#888">5.7%</tspan></text>
  <circle cx="4" cy="92" r="4" fill="#4EAA25" />
  <text x="14" y="95" font-size="11" fill="#333">Shell <tspan fill="#888">4.5%</tspan></text>
  <circle cx="204" cy="92" r="4" fill="#384d54" />
  <text x="214" y="95" font-size="11" fill="#333">Dockerfile <tspan fill="#888">3.8%</tspan></text>

</svg>